<svg width="1.8194in" height="1.5139in" version="1.1" viewBox="0 0 131 109" xmlns="http://www.w3.org/2000/svg">
 <path id="Ludeon" d="m82 21 21 21c5.64 5.72 8.96 9.54 7.81 18-0.82 6.02-4.74 9.18-8.81 13.16l-16 16c-6.85 6.71-13.41 16.53-24 15.74-8.4-0.62-18.11-13.01-24-18.9-4.31-4.31-18.54-17.83-20.91-22-1.52-2.66-2.22-5.95-1.89-9 0.68-6.33 5.57-10.75 9.8-15l19-19c4.98-4.97 8.19-9.06 15-11.44 11.29-1.94 15.61 4.05 23 11.44zm-51.96 34c0.53 12.11 12.83 24.9 20.96 33 2.52 2.51 8.4 8.82 12 9.01 3.35 0.18 9.56-5.82 12-8.1 8.33-7.77 23.01-24.64 21.8-36.91-1.26-12.79-14.54-19.86-25.79-13.59-4.38 2.45-5.77 5.37-8.01 9.59-6.23-18.28-33.92-15.14-32.96 7z" stroke="#000"/>
</svg>
